<svg xmlns:dc="http://purl.org/dc/elements/1.1/" xmlns:cc="http://creativecommons.org/ns#" xmlns:rdf="http://www.w3.org/1999/02/22-rdf-syntax-ns#" xmlns:svg="http://www.w3.org/2000/svg" xmlns="http://www.w3.org/2000/svg" xmlns:sodipodi="http://sodipodi.sourceforge.net/DTD/sodipodi-0.dtd" xmlns:inkscape="http://www.inkscape.org/namespaces/inkscape" viewBox="0 0 26 32.5" version="1.1" x="0px" y="0px"><g transform="translate(0,-1026.3622)"><g transform="matrix(1.0664186,0,0,1.0664186,58.689952,71.970494)"><g transform="translate(-56.000005,-133)"><path style="color:#000000;font-style:normal;font-variant:normal;font-weight:normal;font-stretch:normal;font-size:medium;line-height:normal;font-family:sans-serif;text-indent:0;text-align:start;text-decoration:none;text-decoration-line:none;text-decoration-style:solid;text-decoration-color:#000000;letter-spacing:normal;word-spacing:normal;text-transform:none;direction:ltr;block-progression:tb;writing-mode:lr-tb;baseline-shift:baseline;text-anchor:start;white-space:normal;clip-rule:nonzero;display:inline;overflow:visible;visibility:visible;opacity:1;isolation:auto;mix-blend-mode:normal;color-interpolation:sRGB;color-interpolation-filters:linearRGB;solid-color:#000000;solid-opacity:1;fill:#000000;fill-opacity:1;fill-rule:evenodd;stroke:none;stroke-width:0.93771809;stroke-linecap:butt;stroke-linejoin:round;stroke-miterlimit:4;stroke-dasharray:none;stroke-dashoffset:0;stroke-opacity:1;color-rendering:auto;image-rendering:auto;shape-rendering:auto;text-rendering:auto;enable-background:accumulate" d="M 13.001953 0 C 5.828162 0 -1.492986e-005 5.824249 0 12.998047 C -1.492986e-005 20.171845 5.828162 26 13.001953 26 C 20.175741 26 26.000015 20.171845 26 12.998047 C 26.000015 5.824249 20.175741 0 13.001953 0 z M 13.001953 1 C 19.6353 1 25.000014 6.3647099 25 12.998047 C 25.000014 19.631384 19.6353 24.998047 13.001953 24.998047 C 6.3686026 24.998047 0.99998614 19.631384 1 12.998047 C 0.99998614 6.3647099 6.3686026 1 13.001953 1 z M 5 6 L 5 19 L 5 20 L 6 20 L 21 20 L 21 19 L 18.972656 19 L 18.972656 8.0273438 L 17.025391 8.0273438 L 17.025391 9.4765625 C 17.02699 9.4936252 17.027557 9.5102811 17.027344 9.5273438 L 17.027344 19 L 16.025391 19 L 16.025391 10.027344 L 14.027344 10.027344 L 14.027344 12.527344 L 14.027344 19 L 13.027344 19 L 13.027344 13.027344 L 11.027344 13.027344 L 11.027344 15.527344 L 11.027344 19 L 10.027344 19 L 10.027344 16.027344 L 8.0273438 16.027344 L 8.0273438 19 L 6 19 L 6 6 L 5 6 z " transform="matrix(0.93771808,0,0,0.93771808,0.96537601,1027.9504)"/></g></g></g><text x="0" y="41" fill="#000000" font-size="5px" font-weight="bold" font-family="'Helvetica Neue', Helvetica, Arial-Unicode, Arial, Sans-serif"></text><text x="0" y="46" fill="#000000" font-size="5px" font-weight="bold" font-family="'Helvetica Neue', Helvetica, Arial-Unicode, Arial, Sans-serif"></text></svg>