<svg xmlns="http://www.w3.org/2000/svg" xmlns:xlink="http://www.w3.org/1999/xlink" version="1.1" x="0px" y="0px" viewBox="0 0 90 112.5" style="enable-background:new 0 0 90 90;" xml:space="preserve"><path d="M57.3,11.7c-0.4,2.2-0.7,3.6-1.4,4.6c-3.1-2.3-6.9-3.6-11-3.6c-10.3,0-18.7,8.4-18.7,18.7c0,6.4,3.2,12,8,15.4  c-1,0.5-1.5,1.1-1.5,1.8v1.9c-1.3,0.6-2,1.3-2,2.2v3.4c0,2.6,7.2,4,14.3,4c7.1,0,14.3-1.4,14.3-4v-3.4c0-0.8-0.7-1.6-2-2.2v-1.9  c0-0.7-0.6-1.3-1.6-1.8c4.8-3.4,7.9-9,7.9-15.3c0-4.4-1.5-8.4-4.1-11.6c0.9-0.7,2.3-1,4.5-1.4C58.9,17.5,58.2,16.8,57.3,11.7z   M32.2,56.4c-0.2-0.2-0.3-0.4-0.3-0.5v-1.7c0.1,0.1,0.2,0.1,0.3,0.2V56.4z M33.3,57c-0.2-0.1-0.4-0.2-0.6-0.3v-2.1  c0.2,0.1,0.4,0.2,0.6,0.2V57z M33.8,49.9c0.1,0.1,0.3,0.2,0.4,0.2v1.8c-0.3-0.2-0.4-0.4-0.4-0.5V49.9z M34.7,57.5  c-0.3-0.1-0.7-0.2-0.9-0.3v-2.1c0.3,0.1,0.6,0.2,0.9,0.3V57.5z M34.7,52.2v-1.8c0.2,0.1,0.4,0.1,0.6,0.2v1.8  C35,52.4,34.8,52.3,34.7,52.2z M54.8,57.6c-2.2,0.6-5.5,1-9.8,1c-4.3,0-7.6-0.5-9.8-1v-2.1c2.7,0.7,6.3,1,9.8,1c3.6,0,7.1-0.3,9.8-1  V57.6z M35.7,52.6v-1.8c0.3,0.1,0.6,0.2,0.9,0.3v1.9C36.3,52.8,36,52.7,35.7,52.6z M37.1,53v-1.9c2.2,0.5,5,0.7,7.9,0.7  c2.8,0,5.7-0.3,7.9-0.8V53c-1.9,0.4-4.5,0.8-7.9,0.8C41.6,53.8,39,53.5,37.1,53z M53.4,52.9V51c0.3-0.1,0.6-0.2,0.9-0.3v1.8  C54.1,52.7,53.8,52.8,53.4,52.9z M57.8,54.4c0.1-0.1,0.2-0.1,0.3-0.2v1.7c0,0.1-0.1,0.3-0.3,0.5V54.4z M56.8,54.9  c0.2-0.1,0.4-0.2,0.6-0.2v2.1c-0.2,0.1-0.3,0.2-0.6,0.3V54.9z M55.9,50.1c0.1-0.1,0.2-0.1,0.3-0.2v1.4c0,0.1-0.1,0.3-0.3,0.5V50.1z   M56.3,55.1v2.1c-0.3,0.1-0.6,0.2-0.9,0.3v-2.1C55.7,55.3,56,55.2,56.3,55.1z M54.9,52.4v-1.8c0.2-0.1,0.4-0.1,0.6-0.2v1.8  C55.3,52.2,55.1,52.3,54.9,52.4z M44.9,48.1c-9.2,0-16.7-7.5-16.7-16.7s7.5-16.7,16.7-16.7c3.5,0,6.7,1.1,9.3,2.9  c-0.9,0.4-2,0.6-3.6,0.9c5.1,0.9,5.8,1.6,6.7,6.7c0.3-1.7,0.5-2.8,0.9-3.7c2.1,2.8,3.4,6.3,3.4,10C61.6,40.6,54.1,48.1,44.9,48.1z"/><path d="M53.2,23.2c-1.6,1.2-2,1.2-3.6,0.1c1.2,1.6,1.2,2,0.1,3.6c1.6-1.2,2-1.2,3.6-0.1C52.1,25.2,52.1,24.8,53.2,23.2z"/><path d="M70.6,23.2c-1.9,0.3-2.3,0.1-3.2-1.6c0.3,1.9,0.1,2.3-1.6,3.2c1.9-0.3,2.3-0.1,3.2,1.6C68.7,24.5,68.8,24.2,70.6,23.2z"/><path d="M53.8,10.7c0-2,0.2-2.3,2-3c-2,0-2.3-0.2-3-2c0,2-0.2,2.3-2,3C52.8,8.6,53.1,8.8,53.8,10.7z"/><circle cx="56.5" cy="28.5" r="0.9"/><circle cx="67.2" cy="16.3" r="0.9"/><circle cx="57.5" cy="31.8" r="0.5"/><circle cx="51.6" cy="37.4" r="0.5"/><circle cx="43.4" cy="20.8" r="0.5"/><circle cx="67.7" cy="31.8" r="0.5"/><path d="M53.7,66.5c-0.1-0.4-0.6-0.7-1.2-0.7l-14.9,0c-0.6,0-1.2,0.3-1.2,0.7l-3.2,17.1c-0.1,0.4,0.6,0.7,1.4,0.7l20.8,0  c0.9,0,1.5-0.3,1.4-0.7L53.7,66.5z M50,73.9l-2.2,1.2c-0.1,0-0.1,0.1-0.1,0.1l0.6,1.7c0,0.1-0.2,0.2-0.3,0.1l-2.9-0.8  c-0.1,0-0.1,0-0.2,0L42,77c-0.2,0-0.4,0-0.3-0.1l0.6-1.7c0,0,0-0.1-0.1-0.1L40,73.9c-0.1-0.1,0-0.2,0.1-0.2l3.1-0.2  c0.1,0,0.1,0,0.2-0.1l1.4-1.5c0.1-0.1,0.3-0.1,0.4,0l1.4,1.5c0,0,0.1,0.1,0.2,0.1l3.1,0.2C50.1,73.7,50.2,73.9,50,73.9z"/><path d="M88.4,83.6l-11-17.1c-0.2-0.4-0.9-0.7-1.6-0.7l-14.9,0c-0.6,0-1,0.3-0.9,0.7l4.7,17.1c0.1,0.4,0.9,0.7,1.8,0.7l20.8,0  C88.2,84.3,88.7,84,88.4,83.6z M78.2,74.6l-2.4,0.5l2,1.4c0.2,0.1,0,0.2-0.2,0.2L74.4,76L74,77.5c0,0.1-0.3,0.1-0.4,0L71.9,76  l-2.5,0.6c-0.2,0.1-0.5-0.1-0.4-0.2l0.7-1.4l-2.9-0.5c-0.2,0-0.3-0.2-0.1-0.2l2.5-0.5l-1.8-1.4c-0.1-0.1,0-0.2,0.2-0.2l2.8,0.6  l0.4-1.4c0-0.1,0.3-0.1,0.4,0l1.7,1.4l2.2-0.6c0.2-0.1,0.4,0.1,0.4,0.2L75,73.8l3,0.6C78.3,74.4,78.4,74.5,78.2,74.6z"/><path d="M29,65.8l-14.9,0h0c-0.6,0-1.3,0.3-1.6,0.7l-11,17.1c-0.2,0.4,0.2,0.7,1.1,0.7l20.8,0c0,0,0,0,0,0c0.9,0,1.6-0.3,1.8-0.7  L30,66.5C30.1,66.1,29.7,65.8,29,65.8z M22,75.7c-1.8,1.2-5.1,1.8-7.5,1.2C12.6,76.4,12,75.2,13,74c1.2-1.4,3.8-2.3,6.1-2.3  c0.2,0,0.2,0.1,0,0.2c-1.1,0.4-2.1,0.9-2.5,1.7c-0.5,0.8,0,1.6,1.1,2c1.2,0.4,2.7,0.4,4,0C22,75.5,22.1,75.6,22,75.7z"/><text x="0" y="105" fill="#000000" font-size="5px" font-weight="bold" font-family="'Helvetica Neue', Helvetica, Arial-Unicode, Arial, Sans-serif"></text><text x="0" y="110" fill="#000000" font-size="5px" font-weight="bold" font-family="'Helvetica Neue', Helvetica, Arial-Unicode, Arial, Sans-serif"></text></svg>